<?xml version="1.0" encoding="utf-8"?>
<!-- Generator: Adobe Illustrator 19.1.0, SVG Export Plug-In . SVG Version: 6.00 Build 0)  -->
<svg version="1.0" id="Layer_1" xmlns="http://www.w3.org/2000/svg" xmlns:xlink="http://www.w3.org/1999/xlink" x="0px" y="0px"
	 viewBox="0 0 64 64" style="enable-background:new 0 0 64 64;" xml:space="preserve">
<style type="text/css">
	.st0{fill:none;}
	.st1{fill:#FFFFFF;}
</style>
<symbol  id="Arrow_26" viewBox="-22.9 -13.1 45.8 26.2">
	<polygon class="st0" points="-22.9,-13.1 22.9,-13.1 22.9,13.1 -22.9,13.1 	"/>
	<g>
		<polygon class="st1" points="-22.9,-6.3 0.1,-6.3 0.1,-13.1 22.9,0 0.1,13.1 0.1,6.3 -22.9,6.3 		"/>
	</g>
</symbol>
<use xlink:href="#Arrow_26"  width="45.8" height="26.2" x="-22.9" y="-13.1" transform="matrix(-5.169756e-011 0.5757 -0.5757 -5.169756e-011 31.8997 50.7805)" style="overflow:visible;"/>
<use xlink:href="#Arrow_26"  width="45.8" height="26.2" x="-22.9" y="-13.1" transform="matrix(2.584878e-011 -0.5757 0.5757 2.584878e-011 32.0289 13.2193)" style="overflow:visible;enable-background:new    ;"/>
<use xlink:href="#Arrow_26"  width="45.8" height="26.2" id="XMLID_1_" x="-22.9" y="-13.1" transform="matrix(-0.5757 0 0 -0.5757 13.2193 31.9712)" style="overflow:visible;enable-background:new    ;"/>
<use xlink:href="#Arrow_26"  width="45.8" height="26.2" x="-22.9" y="-13.1" transform="matrix(0.5757 0 0 0.5757 50.7807 32.0289)" style="overflow:visible;enable-background:new    ;"/>
</svg>
